<svg width="115" height="114" viewBox="0 0 115 114" fill="none" xmlns="http://www.w3.org/2000/svg">
<path d="M97.6986 11.6678C92.5084 15.0938 84.0018 20.7024 78.5249 24.3393C76.5662 25.64 74.4144 26.6325 72.684 28.3116C72.4869 28.503 72.2897 28.6943 72.0925 28.8857C70.5367 30.3955 68.9808 31.9053 67.425 33.4152C65.3995 35.3807 63.3741 37.3463 61.3486 39.3119" stroke="black" stroke-width="3.5" stroke-linecap="round"/>
<path d="M62.8404 52.7438C67.5057 53.3867 80.2636 55.1337 85.6552 55.9131C87.3048 56.1515 88.9541 56.3936 90.5995 56.6686C91.2137 56.7713 92.3044 56.4998 92.4017 57.209C92.5133 58.0221 91.027 57.6716 90.3184 57.7468C80.7881 58.7584 71.2989 60.1072 61.7946 61.4108C44.1476 63.8311 26.5096 66.1527 8.80454 67.917C6.64771 68.1319 4.49646 68.3894 2.4316 69.1838C1.54344 69.5254 2.11028 69.2943 3.39467 68.44C24.1336 54.6455 45.4612 41.8604 66.8296 29.4347C77.0981 23.4637 97.6982 11.6675 97.6982 11.6675" stroke="black" stroke-width="3.5" stroke-linecap="round"/>
<path d="M63.1607 50.9085C63.0904 51.0264 46.62 78.6438 45.0593 81.2352C43.7734 83.3705 42.4987 85.516 41.1588 87.6064C39.1856 90.685 39.8898 89.289 40.1566 85.8446C41.1551 72.953 42.0791 60.0548 43.0006 47.1556C43.5371 39.6454 43.9409 32.0807 44.8101 24.6052C45.2931 20.4513 45.8023 16.314 46.1834 12.144C46.2104 11.849 46.1833 9.54404 46.4367 10.1176C48.889 15.6677 50.8384 21.7268 52.8604 27.4976C54.4392 32.0037 55.6876 36.6548 56.9559 41.2864C57.3607 42.7647 57.774 45.2964 58.6522 46.508" stroke="black" stroke-width="3.5" stroke-linecap="round"/>
</svg>
