<svg width="115" height="123" viewBox="0 0 115 123" fill="none" xmlns="http://www.w3.org/2000/svg">
<path d="M97.6986 20.6678C92.5084 24.0938 84.0018 29.7024 78.5249 33.3393C76.5662 34.64 74.4144 35.6325 72.684 37.3116C72.4869 37.503 72.2897 37.6943 72.0925 37.8857C70.5367 39.3955 68.9808 40.9053 67.425 42.4152C65.3995 44.3807 63.3741 46.3463 61.3486 48.3119" stroke="white" stroke-width="3.5" stroke-linecap="round"/>
<path d="M62.8404 61.7438C67.5057 62.3867 80.2636 64.1337 85.6552 64.9131C87.3048 65.1515 88.9541 65.3936 90.5995 65.6686C91.2137 65.7713 92.3044 65.4998 92.4017 66.209C92.5133 67.0221 91.027 66.6716 90.3184 66.7468C80.7881 67.7584 71.2989 69.1072 61.7946 70.4108C44.1476 72.8311 26.5096 75.1527 8.80454 76.917C6.64771 77.1319 4.49646 77.3894 2.4316 78.1838C1.54344 78.5254 2.11028 78.2943 3.39467 77.44C24.1336 63.6455 45.4612 50.8604 66.8296 38.4347C77.0981 32.4637 97.6982 20.6675 97.6982 20.6675" stroke="white" stroke-width="3.5" stroke-linecap="round"/>
<path d="M63.1607 59.9085C63.0904 60.0264 46.62 87.6438 45.0593 90.2352C43.7734 92.3705 42.4987 94.516 41.1588 96.6064C39.1856 99.685 39.8898 98.289 40.1566 94.8446C41.1551 81.953 42.0791 69.0548 43.0006 56.1556C43.5371 48.6454 43.9409 41.0807 44.8101 33.6052C45.2931 29.4513 45.8023 25.314 46.1834 21.144C46.2104 20.849 46.1833 18.544 46.4367 19.1176C48.889 24.6677 50.8384 30.7268 52.8604 36.4976C54.4392 41.0037 55.6876 45.6548 56.9559 50.2864C57.3607 51.7647 57.774 54.2964 58.6522 55.508" stroke="white" stroke-width="3.5" stroke-linecap="round"/>
</svg>
