<svg width="435" height="242" viewBox="0 0 435 242" fill="none" xmlns="http://www.w3.org/2000/svg">
<path d="M60.3797 63.3494C55.902 79.9483 48.0052 108.611 43.7387 126.421C42.6332 131.036 41.6184 135.679 40.847 140.362C40.5792 141.987 40.2206 143.703 40.6287 145.299C40.9437 146.531 51.4211 139.536 51.5408 139.461" stroke="white" stroke-width="3" stroke-linecap="round"/>
<path d="M62.835 65.3135C74.2188 77.875 83.8454 92.8374 90.77 108.307C93.7158 114.888 96.4568 121.659 98.4357 128.604C99.6988 133.036 101.762 139.612 100.018 144.535C97.3219 152.145 86.8524 147.245 83.186 143.608C79.216 139.669 80.5126 131.968 80.5126 126.694" stroke="white" stroke-width="3" stroke-linecap="round"/>
<path d="M14.2207 94.7762C34.3655 91.0204 54.1508 86.3153 74.7283 85.9374C84.283 85.7619 94.8644 85.446 103.918 89.0473C106.847 90.2123 108.712 91.9857 109.211 95.049C109.73 98.2417 109.718 100.737 107.465 103.151C101.415 109.633 90.0155 110.49 81.4938 110.49" stroke="white" stroke-width="3" stroke-linecap="round"/>
<path d="M15.6942 94.7761C11.9728 95.1896 8.37944 96.3052 4.89124 97.6133C-0.244766 99.5393 3.68953 106.621 5.27316 110.08C7.90881 115.838 10.7294 119.989 15.6942 123.748C18.6516 125.987 21.5334 126.34 25.1332 126.912C32.5358 128.09 39.9029 126.203 47.2848 126.203C50.6675 126.203 54.0503 126.203 57.433 126.203" stroke="white" stroke-width="3" stroke-linecap="round"/>
<path d="M180.618 116.597C171.914 119.361 148.122 126.934 138.039 130.071C134.954 131.031 131.866 131.986 128.763 132.886C127.605 133.222 125.863 134.513 125.199 133.507C124.437 132.353 127.311 131.695 128.512 131.011C144.678 121.811 160.537 112.127 176.453 102.501C206.007 84.627 235.613 66.9116 265.724 49.9949C269.392 47.9341 273.021 45.8127 276.124 42.9395C277.459 41.7036 276.616 42.5124 274.936 44.8506C247.804 82.605 218.93 119.288 189.734 155.454C175.704 172.834 147.432 207.42 147.432 207.42" stroke="white" stroke-width="3" stroke-linecap="round"/>
<path d="M147.431 207.42C154.24 198.012 165.403 182.601 172.572 172.64C175.136 169.078 178.256 165.832 180.153 161.874C180.369 161.423 180.585 160.972 180.801 160.521C182.507 156.962 184.213 153.403 185.919 149.844C188.139 145.211 190.36 140.578 192.581 135.945" stroke="white" stroke-width="3" stroke-linecap="round"/>
<path d="M181.327 119.66C181.37 119.423 191.354 63.9533 192.317 58.7362C193.111 54.4373 193.878 50.132 194.799 45.8585C196.154 39.565 195.877 42.2658 197.795 47.7485C204.975 68.2693 212.291 88.7404 219.613 109.211C223.876 121.129 228.411 133.024 232.061 145.157C234.089 151.899 236.059 158.636 238.279 165.32C238.436 165.793 240.084 169.297 239.237 168.623C231.045 162.103 223.389 154.401 215.806 147.198C209.884 141.573 204.446 135.461 198.987 129.395C197.245 127.459 194.756 123.919 192.361 122.771" stroke="white" stroke-width="3" stroke-linecap="round"/>
<path d="M337.999 143.505C331.345 149.758 313.163 166.871 305.426 174.059C303.059 176.258 300.688 178.453 298.279 180.606C297.379 181.41 296.367 183.327 295.332 182.707C294.147 181.995 296.454 180.16 297.242 179.024C307.843 163.74 317.958 148.153 328.151 132.593C347.075 103.701 366.116 74.9298 385.957 46.66C388.375 43.2162 390.73 39.7347 392.286 35.8025C392.956 34.1111 392.546 35.2047 392.041 38.0394C383.893 83.812 373.711 129.372 363.015 174.604C357.875 196.341 347.329 239.75 347.329 239.75" stroke="white" stroke-width="3" stroke-linecap="round"/>
<path d="M347.328 239.75C349.401 228.323 352.807 209.601 354.967 197.52C355.739 193.199 357.149 188.924 357.149 184.534C357.149 184.034 357.149 183.534 357.149 183.034C357.149 179.087 357.149 175.141 357.149 171.194C357.149 166.057 357.149 160.919 357.149 155.781" stroke="white" stroke-width="3" stroke-linecap="round"/>
<path d="M364.211 78.5543C364.014 78.6925 317.859 111.039 313.528 114.103C309.96 116.629 306.374 119.132 302.882 121.762C297.739 125.634 300.074 124.248 305.855 123.688C327.494 121.59 349.146 119.638 370.799 117.69C383.406 116.556 396.106 115.679 408.65 113.898C415.62 112.909 422.562 111.869 429.561 111.078C430.056 111.022 433.928 111.046 432.961 110.561C423.604 105.862 413.4 102.148 403.678 98.2881C396.087 95.2744 388.258 92.9048 380.46 90.4963C377.972 89.7276 373.713 88.9551 371.666 87.263" stroke="white" stroke-width="3" stroke-linecap="round"/>
</svg>
